<svg width="150" height="43" viewBox="0 0 150 43" fill="none" xmlns="http://www.w3.org/2000/svg">
<g clip-path="url(#clip0_32_2)">
<path d="M88.9879 9.05603V13.4322H83.2989V22.4885C83.2989 24.7981 84.4367 25.7098 86.7721 25.7098C87.4908 25.7098 88.4489 25.5275 89.1675 25.102V29.4782C88.3291 30.1468 86.6524 30.5115 85.1553 30.5115C80.3645 30.5115 77.9093 27.8979 77.9093 23.6433V13.493H75.0947V12.3382L81.682 4.55829H83.2989V9.17759H88.9879V9.05603Z" fill="white"/>
<path d="M72.4002 14.709C70.8432 13.5541 68.867 13.1287 67.3699 13.1287C65.2141 13.1287 64.196 13.7972 64.196 14.9521C64.196 15.803 64.5553 16.2285 66.1722 16.8363L69.4658 18.2342C72.5199 19.4498 74.1368 20.9693 74.1368 24.0691C74.1368 28.3237 70.8432 30.8765 65.8129 30.8765C63.4774 30.8765 60.7227 30.2687 59.3454 28.9923V24.1299C61.6809 25.8318 63.9565 26.318 65.8129 26.318C67.849 26.318 68.867 25.6494 68.867 24.4338C68.867 23.5221 68.328 23.1574 66.7711 22.5496L63.3577 21.2124C60.603 20.1184 58.8663 18.5381 58.8663 15.3168C58.8663 11.366 62.16 8.63092 67.7292 8.63092C69.885 8.63092 72.1606 9.17794 73.4781 10.2112L72.4002 14.709Z" fill="white"/>
<path d="M113.241 19.6926C113.241 26.0745 109.109 30.9977 102.043 30.9977C94.9765 30.9977 90.8445 26.0745 90.8445 19.6926C90.8445 13.3714 94.9765 8.44821 102.043 8.44821C109.109 8.38743 113.241 13.3714 113.241 19.6926ZM96.2341 19.6926C96.2341 23.2178 98.2103 26.2568 102.043 26.2568C105.875 26.2568 107.852 23.157 107.852 19.6926C107.852 16.2281 105.875 13.1283 102.043 13.1283C98.2103 13.1283 96.2341 16.1673 96.2341 19.6926Z" fill="white"/>
<path d="M125.578 14.4654C123.062 14.4654 121.326 15.8026 121.326 19.7533V30.2683H115.936V9.05598H121.026L121.086 13.6753C121.984 10.8794 123.721 8.75208 126.715 8.75208C127.673 8.75208 128.632 9.11676 129.23 9.72456L128.212 15.134C127.434 14.7085 126.476 14.4654 125.578 14.4654Z" fill="white"/>
<path d="M142.105 30.8161C133.901 30.8161 129.769 26.0753 129.769 19.5718C129.769 13.6153 133.602 8.50977 140.369 8.50977C146.237 8.50977 149.711 13.3722 149.711 19.0855C149.711 19.8757 149.651 20.9089 149.531 21.5775H135.338C135.997 24.5558 138.392 26.1968 142.704 26.1968C145.04 26.1968 147.375 25.4675 148.752 24.495V29.2359C147.255 30.2691 144.381 30.8161 142.105 30.8161ZM140.129 13.0683C137.434 13.0683 135.698 14.8917 135.219 17.8092H144.441C144.141 14.9525 142.584 13.0683 140.129 13.0683Z" fill="white"/>
<path d="M17.3066 30.268H12.2763L12.2164 26.7428C11.2582 29.174 9.46172 30.6327 6.70704 30.6327C2.57502 30.6327 0 27.7152 0 24.3115C0 18.4766 5.09017 17.7473 9.28207 17.3826L12.0367 17.1395V16.6532C12.0367 14.5259 10.0007 13.3711 7.06635 13.3711C4.85063 13.3711 2.75468 13.9789 0.718612 15.0729L1.97618 10.089C4.01225 9.05569 6.22797 8.69101 8.26403 8.69101C13.1147 8.69101 17.3066 11.0007 17.3066 16.4709V30.268ZM8.44369 26.3173C10.36 26.3173 12.0367 24.737 12.0367 22.1235V20.6647L9.10241 20.9686C6.58727 21.2118 5.38959 21.9411 5.38959 23.7037C5.38959 25.1625 6.28785 26.3173 8.44369 26.3173Z" fill="white"/>
<path d="M32.5771 8.63092C38.4458 8.63092 42.1586 13.4326 42.1586 19.6929C42.1586 25.9533 38.4458 30.7549 32.5172 30.7549C29.4033 30.7549 26.948 29.2354 25.5707 26.865V37.2584H20.241V9.05638H25.4509L25.5108 12.7032C26.8282 10.272 29.2835 8.63092 32.5771 8.63092ZM36.7091 19.6929C36.7091 16.1677 34.733 13.311 31.08 13.311C27.4271 13.311 25.5108 16.2285 25.5108 19.6929C25.5108 23.2182 27.4271 26.0749 31.08 26.0749C34.7929 26.0749 36.7091 23.2182 36.7091 19.6929Z" fill="white"/>
<path d="M51.4404 22.4885V17.5652H46.1107V23.7041C46.1107 27.9587 48.5061 30.5722 53.3567 30.5722C54.7939 30.5722 56.5306 30.2076 57.369 29.539V25.1628C56.6504 25.5275 55.6922 25.7706 54.9736 25.7706C52.5782 25.7706 51.4404 24.7981 51.4404 22.4885Z" fill="white"/>
<path d="M55.4525 4.3154H51.5002V0H46.1106V4.3154H42.1582V9.05627H46.1106V13.4932H51.5002V9.05627H55.4525V4.3154Z" fill="white"/>
</g>
<path d="M60.4707 38.6818C60.3993 39.2931 60.173 39.7654 59.792 40.0989C59.4136 40.4296 58.9095 40.595 58.2797 40.595C57.597 40.595 57.0492 40.3502 56.6364 39.8607C56.2263 39.3711 56.0212 38.7162 56.0212 37.8959V37.3402C56.0212 36.803 56.1164 36.3307 56.307 35.9232C56.5001 35.5157 56.7727 35.2034 57.1246 34.9864C57.4766 34.7668 57.8841 34.657 58.3472 34.657C58.9611 34.657 59.4533 34.829 59.8237 35.173C60.1942 35.5143 60.4099 35.988 60.4707 36.594H59.7047C59.6385 36.1335 59.4943 35.8001 59.272 35.5937C59.0524 35.3873 58.7441 35.2841 58.3472 35.2841C57.8603 35.2841 57.4779 35.4641 57.2 35.8239C56.9248 36.1838 56.7872 36.6959 56.7872 37.36V37.9197C56.7872 38.5469 56.9182 39.0457 57.1802 39.4161C57.4422 39.7866 57.8087 39.9718 58.2797 39.9718C58.7031 39.9718 59.0272 39.8766 59.2522 39.686C59.4797 39.4929 59.6306 39.1581 59.7047 38.6818H60.4707ZM63.1818 40.595C62.5996 40.595 62.1259 40.4045 61.7608 40.0234C61.3956 39.6397 61.213 39.1277 61.213 38.4873V38.3524C61.213 37.9263 61.2937 37.5466 61.4551 37.2132C61.6192 36.8771 61.8468 36.6151 62.1378 36.4273C62.4316 36.2367 62.7491 36.1415 63.0905 36.1415C63.6488 36.1415 64.0828 36.3254 64.3924 36.6932C64.702 37.061 64.8568 37.5876 64.8568 38.273V38.5786H61.9473C61.9579 39.002 62.0809 39.3447 62.3165 39.6067C62.5546 39.866 62.8563 39.9956 63.2215 39.9956C63.4808 39.9956 63.7004 39.9427 63.8804 39.8369C64.0603 39.731 64.2177 39.5908 64.3527 39.4161L64.8012 39.7654C64.4413 40.3185 63.9015 40.595 63.1818 40.595ZM63.0905 36.7448C62.7941 36.7448 62.5453 36.8533 62.3442 37.0703C62.1431 37.2846 62.0188 37.5863 61.9711 37.9753H64.1225V37.9197C64.1013 37.5466 64.0008 37.2582 63.8208 37.0544C63.6409 36.848 63.3974 36.7448 63.0905 36.7448ZM69.3381 38.4159C69.3381 39.0695 69.1886 39.5961 68.8896 39.9956C68.5906 40.3952 68.1857 40.595 67.675 40.595C67.1537 40.595 66.7435 40.4296 66.4445 40.0989V42.1668H65.7102V36.2209H66.381L66.4167 36.6972C66.7157 36.3267 67.1312 36.1415 67.6631 36.1415C68.1791 36.1415 68.5866 36.336 68.8856 36.725C69.1873 37.114 69.3381 37.6551 69.3381 38.3484V38.4159ZM68.6038 38.3325C68.6038 37.8483 68.5006 37.4659 68.2942 37.1854C68.0878 36.9049 67.8046 36.7647 67.4448 36.7647C67.0002 36.7647 66.6668 36.9618 66.4445 37.3561V39.4082C66.6641 39.7998 67.0002 39.9956 67.4527 39.9956C67.8046 39.9956 68.0838 39.8567 68.2902 39.5789C68.4993 39.2984 68.6038 38.8829 68.6038 38.3325ZM70.3423 40.5156V36.2209H72.0174C72.589 36.2209 73.0269 36.3214 73.3312 36.5225C73.6382 36.721 73.7916 37.0134 73.7916 37.3997C73.7916 37.5982 73.7321 37.7781 73.613 37.9396C73.494 38.0983 73.318 38.2201 73.0851 38.3047C73.3444 38.3656 73.5522 38.4847 73.7083 38.662C73.8671 38.8393 73.9465 39.051 73.9465 39.2971C73.9465 39.6913 73.8009 39.993 73.5098 40.2021C73.2214 40.4111 72.8126 40.5156 72.2833 40.5156H70.3423ZM71.0767 38.6302V39.9242H72.2913C72.5982 39.9242 72.8271 39.8673 72.9779 39.7535C73.1314 39.6397 73.2082 39.4796 73.2082 39.2732C73.2082 38.8446 72.8933 38.6302 72.2635 38.6302H71.0767ZM71.0767 38.0428H72.0253C72.7133 38.0428 73.0573 37.8417 73.0573 37.4394C73.0573 37.0372 72.7319 36.8295 72.0809 36.8163H71.0767V38.0428ZM77.6974 36.2209H78.4317V40.5156H77.6974V37.3839L75.7168 40.5156H74.9824V36.2209H75.7168V39.3566L77.6974 36.2209ZM81.3333 39.9956C81.5953 39.9956 81.8242 39.9163 82.02 39.7575C82.2158 39.5987 82.3243 39.4003 82.3455 39.1621H83.0401C83.0268 39.4082 82.9422 39.6424 82.786 39.8647C82.6299 40.0869 82.4209 40.2642 82.1589 40.3965C81.8996 40.5289 81.6244 40.595 81.3333 40.595C80.7485 40.595 80.2827 40.4005 79.9361 40.0115C79.5921 39.6199 79.4201 39.0854 79.4201 38.4079V38.2849C79.4201 37.8668 79.4968 37.495 79.6503 37.1695C79.8038 36.844 80.0234 36.5913 80.3092 36.4114C80.5976 36.2314 80.9377 36.1415 81.3293 36.1415C81.8109 36.1415 82.2105 36.2857 82.528 36.5741C82.8482 36.8626 83.0189 37.237 83.0401 37.6974H82.3455C82.3243 37.4196 82.2184 37.192 82.0279 37.0147C81.84 36.8348 81.6072 36.7448 81.3293 36.7448C80.9562 36.7448 80.6664 36.8798 80.46 37.1497C80.2563 37.4169 80.1544 37.8046 80.1544 38.3127V38.4516C80.1544 38.9464 80.2563 39.3275 80.46 39.5948C80.6638 39.862 80.9549 39.9956 81.3333 39.9956ZM89.3949 40.5156H88.6606V36.8282H86.6839V40.5156H85.9456V36.2209H89.3949V40.5156ZM90.3793 38.3286C90.3793 37.9078 90.4613 37.5294 90.6254 37.1933C90.7921 36.8573 91.0223 36.5979 91.316 36.4154C91.6124 36.2328 91.9498 36.1415 92.3282 36.1415C92.913 36.1415 93.3854 36.3439 93.7452 36.7488C94.1078 37.1536 94.289 37.6921 94.289 38.3643V38.4159C94.289 38.834 94.2083 39.2097 94.0469 39.5432C93.8881 39.8739 93.6592 40.1319 93.3602 40.3172C93.0638 40.5024 92.7225 40.595 92.3361 40.595C91.754 40.595 91.2816 40.3926 90.9191 39.9877C90.5592 39.5828 90.3793 39.047 90.3793 38.3802V38.3286ZM91.1176 38.4159C91.1176 38.8922 91.2274 39.2746 91.447 39.563C91.6693 39.8514 91.9657 39.9956 92.3361 39.9956C92.7093 39.9956 93.0056 39.8501 93.2253 39.559C93.4449 39.2653 93.5547 38.8551 93.5547 38.3286C93.5547 37.8575 93.4422 37.4765 93.2173 37.1854C92.995 36.8917 92.6987 36.7448 92.3282 36.7448C91.9657 36.7448 91.6733 36.889 91.451 37.1775C91.2287 37.4659 91.1176 37.8787 91.1176 38.4159ZM97.9884 36.2209H98.7227V40.5156H97.9884V37.3839L96.0077 40.5156H95.2734V36.2209H96.0077V39.3566L97.9884 36.2209ZM101.624 39.9956C101.886 39.9956 102.115 39.9163 102.311 39.7575C102.507 39.5987 102.615 39.4003 102.636 39.1621H103.331C103.318 39.4082 103.233 39.6424 103.077 39.8647C102.921 40.0869 102.712 40.2642 102.45 40.3965C102.191 40.5289 101.915 40.595 101.624 40.595C101.039 40.595 100.574 40.4005 100.227 40.0115C99.8831 39.6199 99.7111 39.0854 99.7111 38.4079V38.2849C99.7111 37.8668 99.7878 37.495 99.9413 37.1695C100.095 36.844 100.314 36.5913 100.6 36.4114C100.889 36.2314 101.229 36.1415 101.62 36.1415C102.102 36.1415 102.501 36.2857 102.819 36.5741C103.139 36.8626 103.31 37.237 103.331 37.6974H102.636C102.615 37.4196 102.509 37.192 102.319 37.0147C102.131 36.8348 101.898 36.7448 101.62 36.7448C101.247 36.7448 100.957 36.8798 100.751 37.1497C100.547 37.4169 100.445 37.8046 100.445 38.3127V38.4516C100.445 38.9464 100.547 39.3275 100.751 39.5948C100.955 39.862 101.246 39.9956 101.624 39.9956ZM105.494 38.6858H104.958V40.5156H104.22V36.2209H104.958V38.0388H105.439L106.884 36.2209H107.773L106.074 38.2849L107.916 40.5156H106.983L105.494 38.6858ZM111.198 40.5156C111.156 40.4309 111.121 40.2801 111.095 40.0631C110.754 40.4177 110.346 40.595 109.872 40.595C109.449 40.595 109.101 40.4759 108.829 40.2378C108.559 39.997 108.424 39.6927 108.424 39.3248C108.424 38.8776 108.593 38.531 108.932 38.2849C109.273 38.0361 109.752 37.9118 110.369 37.9118H111.083V37.5744C111.083 37.3177 111.006 37.114 110.853 36.9631C110.699 36.8096 110.473 36.7329 110.174 36.7329C109.912 36.7329 109.692 36.7991 109.515 36.9314C109.338 37.0637 109.249 37.2238 109.249 37.4116H108.511C108.511 37.1973 108.586 36.9909 108.737 36.7924C108.891 36.5913 109.097 36.4326 109.356 36.3161C109.618 36.1997 109.906 36.1415 110.218 36.1415C110.713 36.1415 111.1 36.2658 111.381 36.5146C111.661 36.7607 111.807 37.1007 111.817 37.5347V39.5114C111.817 39.9057 111.868 40.2193 111.968 40.4521V40.5156H111.198ZM109.98 39.956C110.21 39.956 110.428 39.8964 110.635 39.7773C110.841 39.6583 110.99 39.5035 111.083 39.3129V38.4318H110.508C109.608 38.4318 109.158 38.695 109.158 39.2216C109.158 39.4519 109.235 39.6318 109.388 39.7615C109.542 39.8911 109.739 39.956 109.98 39.956ZM118.506 36.2209V40.5156H117.767V36.8282H116.307L116.219 38.4357C116.172 39.174 116.047 39.7019 115.846 40.0195C115.648 40.337 115.332 40.5024 114.898 40.5156H114.604V39.8686L114.814 39.8528C115.052 39.8263 115.223 39.6887 115.326 39.4399C115.429 39.1912 115.496 38.7308 115.525 38.0586L115.604 36.2209H118.506ZM121.467 40.595C120.885 40.595 120.411 40.4045 120.046 40.0234C119.681 39.6397 119.498 39.1277 119.498 38.4873V38.3524C119.498 37.9263 119.579 37.5466 119.74 37.2132C119.904 36.8771 120.132 36.6151 120.423 36.4273C120.717 36.2367 121.034 36.1415 121.375 36.1415C121.934 36.1415 122.368 36.3254 122.677 36.6932C122.987 37.061 123.142 37.5876 123.142 38.273V38.5786H120.232C120.243 39.002 120.366 39.3447 120.601 39.6067C120.84 39.866 121.141 39.9956 121.506 39.9956C121.766 39.9956 121.985 39.9427 122.165 39.8369C122.345 39.731 122.503 39.5908 122.638 39.4161L123.086 39.7654C122.726 40.3185 122.186 40.595 121.467 40.595ZM121.375 36.7448C121.079 36.7448 120.83 36.8533 120.629 37.0703C120.428 37.2846 120.304 37.5863 120.256 37.9753H122.407V37.9197C122.386 37.5466 122.286 37.2582 122.106 37.0544C121.926 36.848 121.682 36.7448 121.375 36.7448ZM125.333 38.6858H124.797V40.5156H124.059V36.2209H124.797V38.0388H125.277L126.722 36.2209H127.611L125.912 38.2849L127.754 40.5156H126.821L125.333 38.6858ZM131.037 40.5156C130.994 40.4309 130.96 40.2801 130.933 40.0631C130.592 40.4177 130.185 40.595 129.711 40.595C129.288 40.595 128.94 40.4759 128.667 40.2378C128.397 39.997 128.262 39.6927 128.262 39.3248C128.262 38.8776 128.431 38.531 128.77 38.2849C129.112 38.0361 129.59 37.9118 130.207 37.9118H130.922V37.5744C130.922 37.3177 130.845 37.114 130.691 36.9631C130.538 36.8096 130.312 36.7329 130.013 36.7329C129.751 36.7329 129.531 36.7991 129.354 36.9314C129.176 37.0637 129.088 37.2238 129.088 37.4116H128.349C128.349 37.1973 128.425 36.9909 128.576 36.7924C128.729 36.5913 128.936 36.4326 129.195 36.3161C129.457 36.1997 129.744 36.1415 130.056 36.1415C130.551 36.1415 130.939 36.2658 131.219 36.5146C131.5 36.7607 131.645 37.1007 131.656 37.5347V39.5114C131.656 39.9057 131.706 40.2193 131.807 40.4521V40.5156H131.037ZM129.818 39.956C130.048 39.956 130.267 39.8964 130.473 39.7773C130.679 39.6583 130.829 39.5035 130.922 39.3129V38.4318H130.346C129.446 38.4318 128.996 38.695 128.996 39.2216C128.996 39.4519 129.073 39.6318 129.227 39.7615C129.38 39.8911 129.577 39.956 129.818 39.956ZM136.435 38.4159C136.435 39.0695 136.285 39.5961 135.986 39.9956C135.687 40.3952 135.282 40.595 134.772 40.595C134.25 40.595 133.84 40.4296 133.541 40.0989V42.1668H132.807V36.2209H133.478L133.513 36.6972C133.812 36.3267 134.228 36.1415 134.76 36.1415C135.276 36.1415 135.683 36.336 135.982 36.725C136.284 37.114 136.435 37.6551 136.435 38.3484V38.4159ZM135.701 38.3325C135.701 37.8483 135.597 37.4659 135.391 37.1854C135.185 36.9049 134.901 36.7647 134.542 36.7647C134.097 36.7647 133.764 36.9618 133.541 37.3561V39.4082C133.761 39.7998 134.097 39.9956 134.549 39.9956C134.901 39.9956 135.181 39.8567 135.387 39.5789C135.596 39.2984 135.701 38.8829 135.701 38.3325ZM139.094 39.9956C139.356 39.9956 139.585 39.9163 139.781 39.7575C139.977 39.5987 140.085 39.4003 140.106 39.1621H140.801C140.788 39.4082 140.703 39.6424 140.547 39.8647C140.391 40.0869 140.182 40.2642 139.92 40.3965C139.661 40.5289 139.385 40.595 139.094 40.595C138.509 40.595 138.044 40.4005 137.697 40.0115C137.353 39.6199 137.181 39.0854 137.181 38.4079V38.2849C137.181 37.8668 137.258 37.495 137.411 37.1695C137.565 36.844 137.784 36.5913 138.07 36.4114C138.359 36.2314 138.699 36.1415 139.09 36.1415C139.572 36.1415 139.971 36.2857 140.289 36.5741C140.609 36.8626 140.78 37.237 140.801 37.6974H140.106C140.085 37.4196 139.979 37.192 139.789 37.0147C139.601 36.8348 139.368 36.7448 139.09 36.7448C138.717 36.7448 138.427 36.8798 138.221 37.1497C138.017 37.4169 137.915 37.8046 137.915 38.3127V38.4516C137.915 38.9464 138.017 39.3275 138.221 39.5948C138.425 39.862 138.716 39.9956 139.094 39.9956ZM144.818 36.8163H143.377V40.5156H142.643V36.8163H141.23V36.2209H144.818V36.8163ZM145.6 40.5156V36.2209H147.275C147.847 36.2209 148.284 36.3214 148.589 36.5225C148.896 36.721 149.049 37.0134 149.049 37.3997C149.049 37.5982 148.99 37.7781 148.871 37.9396C148.752 38.0983 148.576 38.2201 148.343 38.3047C148.602 38.3656 148.81 38.4847 148.966 38.662C149.125 38.8393 149.204 39.051 149.204 39.2971C149.204 39.6913 149.059 39.993 148.767 40.2021C148.479 40.4111 148.07 40.5156 147.541 40.5156H145.6ZM146.334 38.6302V39.9242H147.549C147.856 39.9242 148.085 39.8673 148.236 39.7535C148.389 39.6397 148.466 39.4796 148.466 39.2732C148.466 38.8446 148.151 38.6302 147.521 38.6302H146.334ZM146.334 38.0428H147.283C147.971 38.0428 148.315 37.8417 148.315 37.4394C148.315 37.0372 147.989 36.8295 147.338 36.8163H146.334V38.0428Z" fill="white"/>
<defs>
<clipPath id="clip0_32_2">
<rect width="149.711" height="37.2583" fill="white"/>
</clipPath>
</defs>
</svg>
